<?xml version="1.0" encoding="utf-8"?>
<!-- Generator: Adobe Illustrator 18.1.1, SVG Export Plug-In . SVG Version: 6.00 Build 0)  -->
<!DOCTYPE svg PUBLIC "-//W3C//DTD SVG 1.1//EN" "http://www.w3.org/Graphics/SVG/1.1/DTD/svg11.dtd">
<svg version="1.1"
     xmlns="http://www.w3.org/2000/svg"
     xmlns:xlink="http://www.w3.org/1999/xlink"
     x="0px" y="0px"
	 viewBox="0 0 765.4 999"
     enable-background="new 0 0 765.4 999"
     xml:space="preserve">
<g id="SEA" fill="#DDEEFF">
	<polygon points="0,0 0,612 27,612 45,603 72,585 99,567 126,549 153,540 180,531 207,540 225,549 243,540 243,531 
		252,531 261,540 279,540 288,558 288,540 279,531 261,531 252,522 243,522 234,531 216,531 207,522 198,522 189,522 171,504 
		180,495 207,486 225,486 234,495 234,504 252,504 261,522 288,522 288,513 279,504 261,504 252,495 252,486 261,486 279,486 
		261,477 270,468 261,459 243,441 234,441 243,432 261,432 252,423 252,405 270,396 279,387 297,360 315,333 324,315 333,279 
		342,216 351,198 351,180 360,180 369,189 378,189 396,180 405,198 405,216 414,225 432,225 432,234 414,252 396,252 396,270 
		405,279 396,288 405,297 387,315 405,324 432,333 450,342 468,333 477,315 504,306 513,279 504,297 486,306 468,315 468,324 
		459,333 441,333 432,324 405,315 414,306 423,297 441,288 450,279 459,270 477,261 504,270 513,270 504,261 486,261 477,252 
		477,243 477,216 486,207 495,207 477,198 468,207 441,198 450,171 441,153 459,108 477,99 531,72 540,72 576,72 621,63 648,63 
		657,90 675,99 684,99 684,108 693,108 702,108 702,99 711,90 684,90 675,81 675,63 684,45 693,45 684,36 693,18 720,9 756,9 765,0"/>
</g>
<!--
<g id="EU">
	<path fill="#FFFFFF" d="M765,0l-9,9h-36l-27,9l-9,18l9,9h-9l-9,18v18l9,9h27l-9,9v9h-9v72l-9,18l-9,18v9v27h-45v18h-9l9,18l9,9h27
		l9,18v27l-27,27h-9l-9,9l-9,9l18,9v9l-9,18h-18l-18,9h-9v9h-9v-9l-27-9h-9l9,9h-18l-9,9v18l9,9l9,9v9l18,27v27l-9,9l-9,18v18h9
		l-9,9l-18,18h-18l9,18h18v9l9,9c0,0-0.8,6.5,0,9s-9,0-9,0v9l-9,9l9,9h9l9,18l18,9l-18,9l9,18h18v18l9,18h-9l-9,9l-18,9l9,9l-18,9
		l-9-9l-9,9l-9,9l-9,18v9l-18,18l9,9l-9,9l9,9l9,18l9,9l-9,18l-18,9h-18l-18,9v-18l-9-9h-9v-9l-9-9h-9l-9-9l-9-9l-9-9l-18,9v-27
		l-9-9l9-27v-18h-9l-18,18v18l-27,9h-36l-9-9v-9l9-9l-9-18v-9l9-9l-9-9v9l-18-27l-18,9l-9-9h-9l-9,9l-9-9v-18l-9-9h-9v-9h-9l-9,9
		l-18-9v-9v-9v-18l-9-9l-9-18l-9,9H99v9l-9,9l-9-9l-9-9l-9-9l-9-9v-18v-9l-9-9v-9v-9l-18,9H0l-1,387h766V0z"/>
</g>
-->
<g id="BE-NL" fill="#F0F7F0">
	<g id="BE">
		<polygon points="45,603 45,612 45,621 54,630 54,639 54,657 63,666 72,675 81,684 90,693 99,684 99,675 117,675 
			126,666 135,684 144,693 144,711 144,720 144,729 162,738 171,729 180,729 180,738 189,738 198,747 198,765 207,774 216,765 
			225,765 234,774 252,765 270,792 270,783 279,792 270,801 270,810 279,828 270,837 270,846 279,855 315,855 342,846 342,828 
			360,810 369,810 369,828 360,855 369,864 369,891 387,882 396,891 405,900 414,909 423,909 432,918 432,927 441,927 450,936 
			450,954 468,945 486,945 504,936 513,918 504,909 495,891 486,882 495,873 486,864 504,846 504,837 513,819 522,810 531,801 
			540,810 558,801 549,792 567,783 576,774 585,774 576,756 576,738 558,738 549,720 567,711 549,702 540,684 531,684 522,675 
			486,675 477,657 486,648 495,630 495,621 504,603 504,594 495,585 486,585 468,576 459,558 441,567 423,567 414,558 396,540 
			396,522 387,513 378,531 360,531 360,522 360,513 351,513 333,531 324,531 324,513 306,522 306,540 288,540 288,558 279,540 
			270,558 243,576 216,576 216,567 198,558 180,558 180,567 162,567 153,540 126,549 99,567 72,585"/>
	</g>
	<g id="NL">
		<path d="M684,108v-9h-9l-18-9l-9-27h-27l-45,9h-36h-9l-54,27l-18,9l-18,45l9,18l-9,27l27,9l9-9l18,9h-9l-9,9v27v9
			l9,9h18l9,9h-9l-27-9l-18,9l-9,9l-9,9l-18,9l-9,9l-9,9l27,9l9,9h18l9-9v-9l18-9l18-9l9-18l-9,27l-27,9l-9,18l-18,9l-18-9l-27-9
			l-18-9l18-18l-9-9l9-9l-9-9v-18h18l18-18v-9h-18l-9-9v-18l-9-18l-18,9h-9l-9-9h-9v18l-9,18l-9,63l-9,36l-9,18l-18,27l-18,27l-9,9
			l-18,9v18l9,9h-18l-9,9h9l18,18l9,9l-9,9l18,9h-18h-9v9l9,9h18l9,9v9h-27l-9-18h-18v-9l-9-9h-18l-27,9l-9,9l18,18h9h9l9,9h18l9-9
			h9l9,9h18l9,9h18v-18l18-9v18h9l18-18h9v9v9h18l9-18l9,9v18l18,18l9,9h18l18-9l9,18l18,9h9l9,9v9l-9,18v9l-9,18l-9,9l9,18h36l9-9
			v-9c0,0,9.8,2.5,9,0s0-9,0-9l-9-9v-9h-18l-9-18h18l18-18l9-9h-9v-18l9-18l9-9v-27l-18-27v-9l-9-9l-9-9v-18l9-9h18l-9-9h9l27,9v9h9
			v-9h9l18-9h18l9-18v-9l-18-9l9-9l9-9h9l27-27v-27l-9-18h-27l-9-9l-9-18h9v-18h45v-27v-9l9-18l9-18v-72H684z"/>
		<polygon fill="#F0F7F0" points="252,531 243,531 243,540 225,549 207,540 180,531 153,540 162,567 180,567 180,558 198,558 
			216,567 216,576 243,576 270,558 279,540 261,540"/>
		<polygon fill="#F0F7F0" points="234,477 243,486 261,477 243,459 207,459 207,468 225,468"/>
		<polygon fill="#F0F7F0" points="351,171 351,153 369,126 378,126 378,144 360,171"/>
		<polygon fill="#F0F7F0" points="378,117 369,117 387,99 405,90 396,99"/>
		<polygon fill="#F0F7F0" points="414,81 423,72 468,63 432,81 423,90"/>
		<polygon fill="#F0F7F0" points="477,63 522,54 486,54"/>
		<polygon fill="#F0F7F0" points="549,54 576,45 558,45"/>
		<polygon fill="#F0F7F0" points="621,27 630,36 639,27"/>
	</g>
</g>
<g id="LINES" fill="none" stroke="#707F70" stroke-miterlimit="10" >
	<polygon points="45,603 45,612 45,621 54,630 54,639 54,657 63,666 72,675 
		81,684 90,693 99,684 99,675 117,675 126,666 135,684 144,693 144,711 144,720 144,729 162,738 171,729 180,729 180,738 189,738 
		198,747 198,765 207,774 216,765 225,765 234,774 252,765 270,792 270,783 279,792 270,801 270,810 279,828 270,837 270,846 
		279,855 315,855 342,846 342,828 360,810 369,810 369,828 360,855 369,864 369,891 387,882 396,891 405,900 414,909 423,909 
		432,918 432,927 441,927 450,936 450,954 468,945 486,945 504,936 513,918 504,909 495,891 486,882 495,873 486,864 504,846 
		504,837 513,819 522,810 531,801 540,810 558,801 549,792 567,783 576,774 585,774 576,756 576,738 558,738 549,720 567,711 
		549,702 540,684 531,684 522,675 486,675 477,657 486,648 495,630 495,621 504,603 504,594 495,585 486,585 468,576 459,558 
		441,567 423,567 414,558 396,540 396,522 387,513 378,531 360,531 360,522 360,513 351,513 333,531 324,531 324,513 306,522 
		306,540 288,540 288,558 279,540 270,558 243,576 216,576 216,567 198,558 180,558 180,567 162,567 153,540 126,549 99,567 72,585 
"/>
	<polyline points="0,612 27,612 45,603"/>
	<polyline points="693,108 702,108 702,99 711,90 684,90 675,81 675,63 
		684,45 693,45 684,36 693,18 720,9 756,9 765,0"/>
	<polyline points="279,540 261,540 252,531 243,531 243,540 225,549 207,540 
		180,531 153,540"/>
	<path d="M522,675l9-9v-9c0,0,9.8,2.5,9,0s0-9,0-9l-9-9v-9h-18l-9-18h18l18-18
		l9-9h-9v-18l9-18l9-9v-27l-18-27v-9l-9-9l-9-9v-18l9-9h18l-9-9h9l27,9v9h9v-9h9l18-9h18l9-18v-9l-18-9l9-9l9-9h9l27-27v-27l-9-18
		h-27l-9-9l-9-18h9v-18h45v-27v-9l9-18l9-18v-72h-9v-9h-9l-18-9l-9-27h-27l-45,9h-36h-9l-54,27l-18,9l-18,45l9,18l-9,27l27,9l9-9
		l18,9h-9l-9,9v27v9l9,9h18l9.2,9.8L504,270l-27-9l-18,9l-9,9l-9,9l-18,9l-9,9l-9,9l27,9l9,9h18l9-9v-9l18-9l18-9l9-18l-9,27l-27,9
		l-9,18l-18,9l-18-9l-27-9l-18-9l18-18l-9-9l9-9l-9-9v-18h18l18-18v-9h-18l-9-9v-18l-9-18l-18,9h-9l-9-9h-9v18l-9,18l-9,63l-9,36
		l-9,18l-18,27l-18,27l-9,9l-18,9v18l9,9h-18l-9,9h9l18,18l9,9l-9,9l18,9h-18h-9v9l9,9h18l9,9v9h-27l-9-18h-18v-9l-9-9h-18l-27,9
		l-9,9l18,18h9h9l9,9h18l9-9h9l9,9h18l9,9"/>
	<polygon points="351,171 351,153 369,126 378,126 378,144 360,171"/>
	<polygon points="378,117 369,117 387,99 405,90 396,99"/>
	<polygon points="414,81 423,72 468,63 432,81 423,90"/>
	<polygon points="477,63 522,54 486,54"/>
	<polygon points="549,54 576,45 558,45"/>
	<polygon points="621,27 630,36 639,27"/>
	<polygon points="234,477 243,486 261,477 243,459 207,459 207,468 225,468"/>
</g>
</svg>
